<?xml version="1.0" encoding="UTF-8"?>
<svg version="1.1" xmlns="http://www.w3.org/2000/svg" width="512" height="512">
<path d="M0 0 C168.96 0 337.92 0 512 0 C512 168.96 512 337.92 512 512 C343.04 512 174.08 512 0 512 C0 343.04 0 174.08 0 0 Z " fill="#F14544" transform="translate(0,0)"/>
<path d="M0 0 C2.40588897 -0.00067575 4.81177788 -0.00164803 7.21766663 -0.00289917 C12.24285537 -0.00436592 17.26802624 -0.00225636 22.29321289 0.00244141 C28.65984254 0.00811017 35.02642976 0.00487125 41.39305782 -0.00113106 C46.36005457 -0.00478831 51.32704169 -0.00357424 56.29403877 -0.00100327 C58.63742643 -0.00034673 60.98081503 -0.00111659 63.32420158 -0.00348282 C130.65647363 -0.05652881 130.65647363 -0.05652881 151.03515625 10.1328125 C151.03515625 10.7928125 151.03515625 11.4528125 151.03515625 12.1328125 C151.9065625 12.38933594 152.77796875 12.64585938 153.67578125 12.91015625 C163.50765177 16.48849982 171.59520015 23.98728389 179.03515625 31.1328125 C180.02589343 32.04833752 181.01678522 32.96369526 182.0078125 33.87890625 C197.68346776 48.6380163 207.45184483 67.61238049 210.72265625 88.8828125 C210.84205566 89.65544434 210.96145508 90.42807617 211.08447266 91.22412109 C213.47767052 108.19816269 213.21250292 125.35078744 213.23534489 142.45040059 C213.23831072 144.56397135 213.24242131 146.6775371 213.24684906 148.79110527 C213.2604651 155.44981321 213.27016096 162.10850923 213.27405095 168.76723009 C213.2785208 176.36923607 213.29604379 183.97106129 213.32505155 191.57301241 C213.34688526 197.50740687 213.35676657 203.44175128 213.35809207 209.37618536 C213.35912454 212.89399494 213.36468968 216.41163338 213.38291168 219.92939949 C213.58918788 262.18161299 213.58918788 262.18161299 208.03515625 274.1328125 C207.69551309 275.43855176 207.38090336 276.75119023 207.09765625 278.0703125 C206.21398905 281.74883411 204.78598084 284.76584213 203.03515625 288.1328125 C202.37837824 289.79519667 201.73345179 291.46229088 201.09765625 293.1328125 C198.13108301 300.58245351 193.4309204 306.18561197 188.34375 312.30859375 C186.25028494 314.86963477 184.26176714 317.48147229 182.28515625 320.1328125 C179.85132389 323.27487321 177.80732827 325.60355357 174.03515625 327.1328125 C172.71515625 327.1328125 171.39515625 327.1328125 170.03515625 327.1328125 C170.03515625 327.7928125 170.03515625 328.4528125 170.03515625 329.1328125 C165.65054087 332.1328125 165.65054087 332.1328125 163.03515625 332.1328125 C163.03515625 332.7928125 163.03515625 333.4528125 163.03515625 334.1328125 C149.95026257 341.86489555 138.03911238 347.25049029 122.97265625 349.8203125 C121.94023804 350.00001587 121.94023804 350.00001587 120.88696289 350.18334961 C103.25976943 352.87761594 85.05759779 352.28328617 67.28515625 352.265625 C64.85058584 352.26630101 62.4160155 352.26727349 59.98144531 352.26852417 C54.91210275 352.26998719 49.84277797 352.26789193 44.7734375 352.26318359 C38.33244409 352.2574872 31.89149238 352.26077375 25.45050049 352.26675606 C20.43310237 352.27039963 15.41571386 352.2692058 10.39831543 352.26662827 C8.0256754 352.26596945 5.65303445 352.26675003 3.28039551 352.26910782 C-39.55372411 352.30235075 -76.25348002 350.25132286 -108.46484375 319.0703125 C-138.41462755 289.07245521 -139.13206165 249.7318727 -139.10113907 209.88757324 C-139.09998974 208.7310022 -139.09884041 207.57443115 -139.09765625 206.3828125 C-139.09833226 203.94824209 -139.09930474 201.51367175 -139.10055542 199.07910156 C-139.10201844 194.009759 -139.09992318 188.94043422 -139.09521484 183.87109375 C-139.08951845 177.43010034 -139.092805 170.98914863 -139.09878731 164.54815674 C-139.10243088 159.53075862 -139.10123705 154.51337011 -139.09865952 149.49597168 C-139.0980007 147.12333165 -139.09878128 144.7506907 -139.10113907 142.37805176 C-139.13058145 104.44100998 -139.13058145 104.44100998 -136.65234375 90.1953125 C-136.51973145 89.41430176 -136.38711914 88.63329102 -136.25048828 87.82861328 C-133.1148957 70.22217034 -125.88389479 54.53848479 -113.96484375 41.1328125 C-110.49745213 37.11348304 -110.49745213 37.11348304 -107.56640625 32.69921875 C-98.77408691 18.61006313 -76.74728819 8.32524282 -61.50390625 3.94140625 C-54.73242885 2.39428062 -47.88476347 1.675878 -40.96484375 1.1328125 C-39.43358856 1.00777092 -39.43358856 1.00777092 -37.87139893 0.88020325 C-25.24946526 -0.03241335 -12.64975173 -0.01265801 0 0 Z " fill="#F78111" transform="translate(221.96484375,77.8671875)"/>
<path d="M0 0 C0 3.99401744 -1.38932443 4.90271059 -4 7.875 C-29.6946927 38.53114827 -29.17049352 74.83158969 -29.1328125 112.75 C-29.13348851 115.18457041 -29.13446099 117.61914075 -29.13571167 120.05371094 C-29.13717469 125.1230535 -29.13507943 130.19237828 -29.13037109 135.26171875 C-29.1246747 141.70271216 -29.12796125 148.14366387 -29.13394356 154.58465576 C-29.13758713 159.60205388 -29.1363933 164.61944239 -29.13381577 169.63684082 C-29.13315695 172.00948085 -29.13393753 174.3821218 -29.13629532 176.75476074 C-29.32861219 203.18161718 -29.32861219 203.18161718 -26.6875 229.4375 C-26.5548877 230.26548096 -26.42227539 231.09346191 -26.28564453 231.9465332 C-21.87583024 258.11737908 -6.63759655 282.19894329 14.9375 297.8125 C16.61026686 298.89804757 18.29900425 299.9592426 20 301 C21.04542969 301.66644531 22.09085938 302.33289063 23.16796875 303.01953125 C34.63922078 310.12337137 46.47554379 313.65176263 59.75 315.75 C60.47396973 315.86577393 61.19793945 315.98154785 61.94384766 316.10083008 C79.69482898 318.58884334 97.87458849 318.150576 115.75 318.1328125 C118.18457041 318.13348851 120.61914075 318.13446099 123.05371094 318.13571167 C128.1230535 318.13717469 133.19237828 318.13507943 138.26171875 318.13037109 C144.70271216 318.1246747 151.14366387 318.12796125 157.58465576 318.13394356 C162.60205388 318.13758713 167.61944239 318.1363933 172.63684082 318.13381577 C175.00948085 318.13315695 177.3821218 318.13393753 179.75476074 318.13629532 C205.94076304 318.40661546 205.94076304 318.40661546 231.9375 315.6875 C232.71778564 315.5548877 233.49807129 315.42227539 234.30200195 315.28564453 C246.43482888 313.12330904 256.23085018 309.09821331 266.76171875 302.828125 C270 301 270 301 272 301 C272 300.34 272 299.68 272 299 C276.38461538 296 276.38461538 296 279 296 C279 295.34 279 294.68 279 294 C279.99 294.33 280.98 294.66 282 295 C279.81701828 298.00159987 277.49143168 300.53063925 274.6875 302.9375 C261.67563715 314.13430227 249.60837365 326.29821449 237.54370117 338.49316406 C228.16047736 347.95813131 228.16047736 347.95813131 224.02734375 351.47265625 C217.82277896 356.7528426 212.22365368 362.71114604 206.5 368.5 C192.13297521 383.03068496 192.13297521 383.03068496 187.1173439 387.01472092 C184.84555075 389.00843689 184.84555075 389.00843689 182.96441269 391.90974808 C179.57005018 396.53928857 176.02132483 400.22182059 170.32040882 401.69016171 C162.7272156 402.71771452 155.07314334 402.53594005 147.42791748 402.39278746 C143.9270877 402.34058184 140.42649448 402.35852873 136.92538452 402.36761475 C130.87134016 402.37388348 124.81885702 402.33648899 118.76520538 402.26876068 C110.0131106 402.17090633 101.26176467 402.13995063 92.50918218 402.12490478 C78.30647559 402.09869196 64.10459973 402.01897311 49.90234375 401.90527344 C36.11267226 401.79499215 22.32322703 401.71011706 8.53320312 401.65917969 C7.68207507 401.65602701 6.83094702 401.65287432 5.95402721 401.64962611 C1.68383186 401.63396476 -2.58636508 401.61880048 -6.85656309 401.60388327 C-42.23830071 401.47964095 -77.61907349 401.26842394 -113 401 C-113.27481267 363.98838532 -113.48618926 326.97692463 -113.61278395 289.9644957 C-113.627792 285.59245836 -113.64332391 281.22042302 -113.65917969 276.84838867 C-113.66232741 275.97801457 -113.66547514 275.10764047 -113.66871825 274.2108914 C-113.72089991 260.12744863 -113.81549481 246.04459511 -113.92583355 231.96150162 C-114.03814934 217.50523664 -114.10472555 203.04927973 -114.12906194 188.59259635 C-114.14550825 179.67540889 -114.19739919 170.75988698 -114.2949976 161.8432124 C-114.35855143 155.72426966 -114.3775749 149.60618475 -114.36201653 143.48693611 C-114.35434705 139.95844288 -114.36588729 136.43285376 -114.4304657 132.90488052 C-114.81816292 110.64906478 -114.81816292 110.64906478 -110.364254 104.95588493 C-107.57140767 102.10282899 -104.41801788 100.05743702 -101 98 C-99.75517419 96.86497351 -98.53528536 95.69967919 -97.37792969 94.47558594 C-96.88411804 93.97847107 -96.3903064 93.4813562 -95.88153076 92.96917725 C-95.39984436 92.4791925 -94.91815796 91.98920776 -94.421875 91.484375 C-93.88073059 90.93944397 -93.33958618 90.39451294 -92.78204346 89.83306885 C-91.10211957 88.14124137 -89.42560179 86.4461074 -87.75 84.75 C-75.36491817 72.21527104 -75.36491817 72.21527104 -69.11425781 66.89160156 C-64.02228359 62.3358722 -59.30029192 57.35978211 -54.5 52.5 C-42.3971967 40.24720622 -42.3971967 40.24720622 -38.06640625 36.56640625 C-31.8289244 31.25083168 -26.19508781 25.26040008 -20.4375 19.4375 C-18.06420324 17.03736105 -15.68743978 14.64073142 -13.30859375 12.24609375 C-12.77922714 11.7084288 -12.24986053 11.17076385 -11.70445251 10.61680603 C-7.97478315 6.86317773 -4.06196891 3.39022015 0 0 Z " fill="#AA302F" transform="translate(113,111)"/>
<path d="M0 0 C2.10644502 0.00119477 4.21289059 0.00164434 6.31933594 0.00138855 C10.71683121 0.00294548 15.11424418 0.01117368 19.51171875 0.0246582 C25.11971242 0.04164657 30.72761593 0.04547195 36.33563232 0.04471302 C40.68018437 0.04498628 45.02471711 0.05049237 49.3692627 0.05771446 C51.43591161 0.06087347 53.50256268 0.06286199 55.56921387 0.06360817 C76.18750955 0.07920826 76.18750955 0.07920826 86.25 1.23046875 C86.25 1.89046875 86.25 2.55046875 86.25 3.23046875 C87.26449219 3.18664062 88.27898437 3.1428125 89.32421875 3.09765625 C103.44504537 3.57537576 117.16325629 12.91583735 127.25 22.23046875 C131.54345749 26.93316884 134.97408585 31.26886367 137.25 37.23046875 C138.20818917 38.99204216 139.18848415 40.7417236 140.1875 42.48046875 C145.95472484 52.94587188 147.38452033 62.56537834 147.45874023 74.36230469 C147.46852402 75.35693222 147.4783078 76.35155975 147.48838806 77.37632751 C147.51820321 80.65581966 147.53969702 83.93527115 147.55859375 87.21484375 C147.56516558 88.34312843 147.5717374 89.47141312 147.57850838 90.63388824 C147.611052 96.61447394 147.63550707 102.5950423 147.6550293 108.57568359 C147.67277702 113.49099117 147.70750058 118.40571804 147.75756836 123.32080078 C147.81825762 129.28770068 147.84857189 135.25406629 147.85820198 141.22126007 C147.8666797 143.47756427 147.88530331 145.7338572 147.9149456 147.9899826 C148.19656968 170.65774182 143.64596438 193.22263413 127.43652344 210.17211914 C117.7162526 219.92386325 106.54911248 226.54194064 93.25 230.23046875 C92.35639267 230.48470612 91.46278534 230.73894348 90.542099 231.00088501 C79.17254471 233.84240555 67.96864027 233.66686866 56.31640625 233.62890625 C54.1079041 233.6309322 51.8994026 233.63384796 49.69090271 233.63760376 C45.08252537 233.64200348 40.47432357 233.63567288 35.8659668 233.62158203 C29.99813365 233.60450192 24.13071266 233.61433925 18.26289463 233.63229942 C13.70803295 233.64320972 9.1532668 233.63965771 4.59840202 233.63191605 C2.43654263 233.62993349 0.27467419 233.63230385 -1.88717461 233.63935471 C-14.91806522 233.67253715 -27.26910137 233.39076829 -39.75 229.23046875 C-39.75 228.57046875 -39.75 227.91046875 -39.75 227.23046875 C-40.62011719 226.96492187 -41.49023438 226.699375 -42.38671875 226.42578125 C-60.80555439 219.87971423 -71.45260593 205.71724281 -80.03979492 189.00976562 C-80.75 187.23046875 -80.75 187.23046875 -80.75 184.23046875 C-81.41 184.23046875 -82.07 184.23046875 -82.75 184.23046875 C-86.01505914 170.82068813 -86.14298913 157.87483602 -86.04296875 144.13671875 C-86.03736072 141.85030396 -86.03309634 139.56388553 -86.03010559 137.27746582 C-86.01875183 131.31318892 -85.98936801 125.34913762 -85.95599365 119.38494873 C-85.92508663 113.27749685 -85.91155652 107.17000786 -85.89648438 101.0625 C-85.86448773 89.11839146 -85.81340842 77.174449 -85.75 65.23046875 C-85.09 65.23046875 -84.43 65.23046875 -83.75 65.23046875 C-83.71261719 64.63621094 -83.67523438 64.04195312 -83.63671875 63.4296875 C-82.20122018 45.33114676 -74.8733841 30.07536588 -61.27099609 18.01220703 C-55.80063075 13.40234859 -50.23965051 10.1403443 -43.75 7.23046875 C-42.95078125 6.78960937 -42.1515625 6.34875 -41.328125 5.89453125 C-28.51477974 -1.16505069 -14.19811741 -0.0534607 0 0 Z " fill="#FFD469" transform="translate(225.75,139.76953125)"/>
<path d="M0 0 C0.99 0.33 1.98 0.66 3 1 C-0.09824084 5.33753717 -4.35675712 10.15310582 -9.78125 11.4140625 C-13.738834 12.45919912 -17.28907552 14.68721294 -20.8671875 16.6484375 C-25.52712182 19.08840311 -25.52712182 19.08840311 -28.20703125 18.58740234 C-28.79871094 18.39355957 -29.39039063 18.1997168 -30 18 C-28.90300781 17.45730469 -27.80601562 16.91460937 -26.67578125 16.35546875 C-25.22130061 15.6329203 -23.7668765 14.91025804 -22.3125 14.1875 C-21.59126953 13.83107422 -20.87003906 13.47464844 -20.12695312 13.10742188 C-17.04436362 11.573165 -14.04926524 10.02998465 -11.10546875 8.23828125 C-9 7 -9 7 -7 7 C-7 6.34 -7 5.68 -7 5 C-2.61538462 2 -2.61538462 2 0 2 C0 1.34 0 0.68 0 0 Z " fill="#BD551C" transform="translate(392,405)"/>
<path d="M0 0 C0 3.99401744 -1.38932443 4.90271059 -4 7.875 C-8.40303828 13.08491417 -11.91511149 18.47597731 -15.37109375 24.34765625 C-17 27 -17 27 -19 29 C-18.42873204 25.00112425 -17.12716428 22.40346284 -15 19 C-14.690625 18.113125 -14.38125 17.22625 -14.0625 16.3125 C-12.76463717 13.48773973 -11.73039771 13.27987393 -9 12 C-8.33217215 10.66724789 -7.66572221 9.33380514 -7 8 C-5.83102663 6.5506846 -4.62060692 5.13400769 -3.375 3.75 C-2.74335937 3.04359375 -2.11171875 2.3371875 -1.4609375 1.609375 C-0.97882813 1.07828125 -0.49671875 0.5471875 0 0 Z " fill="#C4581E" transform="translate(113,111)"/>
<path d="M0 0 C0.99 0.33 1.98 0.66 3 1 C-0.15221101 5.41309542 -3.55463907 8.00793014 -8 11 C-8.66 10.34 -9.32 9.68 -10 9 C-9.34 8.67 -8.68 8.34 -8 8 C-7.67 7.01 -7.34 6.02 -7 5 C-2.66666667 2 -2.66666667 2 0 2 C0 1.34 0 0.68 0 0 Z " fill="#C65323" transform="translate(392,405)"/>
<path d="M0 0 C0 3 0 3 -1.37695312 4.7175293 C-2.00537109 5.33023682 -2.63378906 5.94294434 -3.28125 6.57421875 C-3.95800781 7.24130859 -4.63476562 7.90839844 -5.33203125 8.59570312 C-6.04746094 9.28599609 -6.76289063 9.97628906 -7.5 10.6875 C-8.57314453 11.7403418 -8.57314453 11.7403418 -9.66796875 12.81445312 C-11.43879577 14.54986361 -13.21623456 16.2779073 -15 18 C-15.33 17.01 -15.66 16.02 -16 15 C-15.18015625 14.25234375 -14.3603125 13.5046875 -13.515625 12.734375 C-12.42703861 11.73963227 -11.33849945 10.74483787 -10.25 9.75 C-9.71117187 9.25886719 -9.17234375 8.76773438 -8.6171875 8.26171875 C-5.6756284 5.57126836 -2.7926232 2.8468489 0 0 Z " fill="#B83434" transform="translate(16,205)"/>
<path d="M0 0 C0.66 0.33 1.32 0.66 2 1 C-2.95 5.95 -7.9 10.9 -13 16 C-13 10.79628205 -8.49504984 7.5790344 -5 4 C-3.37707762 2.6137538 -1.7331451 1.24569804 0 0 Z " fill="#FFC255" transform="translate(168,155)"/>
</svg>
